<svg xmlns="http://www.w3.org/2000/svg" viewBox="0 0 240 240" width="100" height="100">
  <g transform="scale(1.2) translate(-20,-20)">
    <path fill="white" d="M49.4,117.8c43.3-18.4,72.2-30.5,86.5-36.2c41.2-17.1,49.8-20.1,55.4-20.2c1.2,0,3.9,0.3,5.6,1.7
      c1.4,1.2,1.8,2.7,2,3.8c0.2,1.1,0.4,3.6,0.2,5.6c-2,20.8-10.6,71.2-15,94.4c-1.9,10-5.7,13.4-9.4,13.7
      c-8,0.7-14.1-5.3-21.9-10.4c-12.2-8-19.1-13-30.9-21c-13.7-9.4-4.8-14.6,3-23.1c2-2.1,36.5-33.4,37.2-36.2
      c0.1-0.3,0.1-1.5-0.6-2.1c-0.7-0.6-1.7-0.4-2.4-0.2c-1,0.2-16.3,10.4-46.1,30.5c-4.4,3-8.3,4.5-11.7,4.5c-3.8,0-11-3.2-16.4-5.2
      c-6.6-2.2-11.9-3.4-11.4-7.3C40.8,122.3,43.2,120.4,49.4,117.8z"/>
  </g>
</svg>